<svg width="16" height="15" viewBox="0 0 16 15" fill="none" xmlns="http://www.w3.org/2000/svg">
<path d="M14.7214 10.4167C13.6797 10.4167 12.6797 10.25 11.7464 9.94167C11.4547 9.85 11.1297 9.91667 10.8964 10.1417L9.06302 11.975C6.70469 10.775 4.77135 8.85 3.57135 6.48333L5.40469 4.64167C5.63802 4.425 5.70469 4.1 5.61302 3.80833C5.30469 2.875 5.13802 1.875 5.13802 0.833333C5.13802 0.375 4.76302 0 4.30469 0H1.38802C0.929687 0 0.554688 0.375 0.554688 0.833333C0.554688 8.65833 6.89635 15 14.7214 15C15.1797 15 15.5547 14.625 15.5547 14.1667V11.25C15.5547 10.7917 15.1797 10.4167 14.7214 10.4167ZM13.888 7.5H15.5547C15.5547 3.35833 12.1964 0 8.05469 0V1.66667C11.2797 1.66667 13.888 4.275 13.888 7.5ZM10.5547 7.5H12.2214C12.2214 5.2 10.3547 3.33333 8.05469 3.33333V5C9.43802 5 10.5547 6.11667 10.5547 7.5Z" fill="black"/>
</svg>
