<svg id="Camada_4" data-name="Camada 4" xmlns="http://www.w3.org/2000/svg" viewBox="0 0 748.82 690.25"><defs><style>.cls-1{fill:#96100f;}</style></defs><title>Favicom</title><path class="cls-1" d="M720.46,141.2a17.46,17.46,0,0,0-22.82-9.4L38.34,406.05a17.45,17.45,0,0,0,0,32.25L170,492.57V611.74a53.37,53.37,0,0,0,106.73,0,18.45,18.45,0,1,1,36.9,0v155.6a53.37,53.37,0,0,0,106.73,0V671.58a18.45,18.45,0,0,1,36.9,0v12a53.37,53.37,0,1,0,106.73,0V655.08l134.56,55.5a17.45,17.45,0,0,0,22.79-9.48,727.28,727.28,0,0,0,55.11-279A726.43,726.43,0,0,0,720.46,141.2ZM529,683.55a18.46,18.46,0,1,1-36.91,0v-12a53.36,53.36,0,0,0-106.72,0v95.76a18.46,18.46,0,0,1-36.91,0V611.74a53.37,53.37,0,1,0-106.73,0,18.45,18.45,0,0,1-36.9,0V507l53.69,22.14a17.45,17.45,0,0,0,13.31-32.27L90.66,422.09,398.08,294.22a43.84,43.84,0,0,0-.77,8,43.27,43.27,0,1,0,67.57-35.79l143.18-59.56a598.1,598.1,0,0,1,39.77,215.27,600.71,600.71,0,0,1-19.19,151.09,64.72,64.72,0,0,0-97.33,30.62l-20-8.27A17.45,17.45,0,1,0,498,627.85L529,640.68Zm166.45-12-59.1-24.38a632.7,632.7,0,0,0-.69-451.81l59-24.56A691.64,691.64,0,0,1,741.5,422.11,692.77,692.77,0,0,1,695.49,671.57Z" transform="translate(-27.59 -130.46)"/><path class="cls-1" d="M438.76,565.68l-53.87-22.22a17.45,17.45,0,1,0-13.31,32.27L425.45,598a17.45,17.45,0,1,0,13.31-32.27Z" transform="translate(-27.59 -130.46)"/><circle class="cls-1" cx="526.95" cy="296.69" r="64.9"/><circle class="cls-1" cx="221.04" cy="288.4" r="43.26"/><circle class="cls-1" cx="560.11" cy="160.41" r="21.63"/><path class="cls-1" d="M413.21,450.4a43.27,43.27,0,1,0,43.27,43.26A43.26,43.26,0,0,0,413.21,450.4Z" transform="translate(-27.59 -130.46)"/><path class="cls-1" d="M378.24,402.27a21.63,21.63,0,1,0-21.63-21.63A21.62,21.62,0,0,0,378.24,402.27Z" transform="translate(-27.59 -130.46)"/></svg>