<svg width="187" height="51" viewBox="0 0 187 51" fill="none" xmlns="http://www.w3.org/2000/svg">
<g clip-path="url(#clip0_175_171)">
<path d="M69.1719 20.3298V2.08594H74.1441V16.348H81.2274V20.3298H69.1719Z" fill="#B11B1B"/>
<path d="M95.3539 20.3298H84.4336V2.08594H95.3539V6.04142H89.4058V8.91095H94.9158V12.8664H89.4058V16.3085H95.3539V20.3298Z" fill="#B11B1B"/>
<path d="M106.853 20.3352L103.095 7.1722H102.982C102.982 7.51444 103.049 7.97515 103.089 8.55432C103.128 9.13349 103.162 9.76532 103.195 10.4366C103.228 11.1079 103.241 11.7529 103.241 12.4111V20.3089H98.8398V2.07812H105.478L109.315 15.0305H109.388L113.152 2.07812H119.791V20.3352H115.217V12.3255C115.217 11.7529 115.217 11.1343 115.25 10.4695C115.283 9.8048 115.297 9.18614 115.323 8.60039C115.35 8.01464 115.383 7.54735 115.41 7.20511H115.297L111.586 20.3352H106.853Z" fill="#B11B1B"/>
<path d="M132.031 20.3352L128.267 7.1722H128.155C128.188 7.51444 128.228 7.97515 128.261 8.55432C128.294 9.13349 128.334 9.76532 128.374 10.4366C128.413 11.1079 128.42 11.7529 128.42 12.4111V20.3089H123.992V2.07812H130.631L134.468 15.0305H134.567L138.331 2.07812H144.97V20.3352H140.403V12.3255C140.403 11.7529 140.403 11.1343 140.403 10.4695C140.403 9.8048 140.449 9.18614 140.476 8.60039C140.502 8.01464 140.535 7.54735 140.562 7.20511H140.442L136.765 20.3352H132.031Z" fill="#B11B1B"/>
<path d="M165.238 6.2273C164.664 4.84728 163.65 3.69154 162.35 2.93656C160.759 2.17615 159.015 1.78125 157.249 1.78125C155.482 1.78125 153.738 2.17615 152.147 2.93656C150.842 3.68424 149.811 4.82562 149.206 6.19439C148.542 7.75733 148.219 9.44165 148.257 11.1371C148.242 12.4481 148.421 13.7541 148.788 15.0136C149.106 16.1072 149.658 17.1197 150.408 17.9819C151.167 18.8345 152.124 19.4917 153.196 19.8971C154.471 20.3593 155.822 20.5825 157.179 20.5552C158.563 20.5894 159.941 20.3661 161.242 19.8971C162.314 19.4927 163.271 18.8353 164.03 17.9819C164.768 17.1121 165.309 16.0954 165.617 15.0004C165.973 13.7527 166.145 12.4602 166.128 11.1634C166.173 9.4752 165.87 7.7956 165.238 6.2273ZM160.591 14.0132C160.396 14.7253 159.986 15.3613 159.416 15.8363C158.785 16.2954 158.014 16.5275 157.232 16.4944C156.465 16.5227 155.711 16.2905 155.095 15.8363C154.517 15.3646 154.1 14.7281 153.9 14.0132C153.629 13.0921 153.502 12.1357 153.521 11.1766C153.504 10.2159 153.629 9.25794 153.893 8.33338C154.089 7.61095 154.506 6.96686 155.088 6.49057C155.714 6.03006 156.48 5.7976 157.259 5.83242C157.822 5.78248 158.389 5.8905 158.893 6.14417C159.398 6.39784 159.821 6.78695 160.113 7.26718C160.726 8.47492 161.012 9.81978 160.943 11.17C160.956 12.1309 160.828 13.0885 160.565 14.0132H160.591Z" fill="#B11B1B"/>
<path d="M186.998 20.3352H180.479L173.781 7.46837H173.668C173.715 7.86326 173.748 8.33055 173.781 8.8834C173.814 9.43624 173.847 9.98908 173.874 10.5617C173.901 11.1343 173.874 11.641 173.874 12.1017V20.3352H169.473V2.07812H175.965L182.663 14.7607H182.736C182.736 14.3592 182.69 13.8919 182.663 13.3654C182.637 12.8389 182.61 12.3058 182.59 11.7661C182.57 11.2264 182.59 10.746 182.59 10.3247V2.07812H187.018L186.998 20.3352Z" fill="#B11B1B"/>
<path d="M92.9779 28.3419C91.8162 27.3349 90.0636 26.8281 87.7335 26.8281H81.3672V45.0786H86.3328V39.0236H87.7335C88.8633 39.0544 89.989 38.8759 91.0528 38.4971C91.8415 38.2174 92.5529 37.7577 93.1294 37.1552C93.706 36.5527 94.1317 35.8243 94.372 35.0287C94.6158 34.2533 94.7367 33.4451 94.7305 32.633C94.7782 31.8336 94.6457 31.0337 94.3425 30.2914C94.0394 29.5491 93.5732 28.8831 92.9779 28.3419ZM89.3998 34.0743C89.1873 34.3966 88.8786 34.6451 88.5168 34.7852C88.1359 34.9316 87.7305 35.0053 87.3219 35.0023H86.3328V30.8099H87.6206C87.9109 30.7863 88.203 30.8226 88.4784 30.9166C88.7538 31.0106 89.0065 31.1603 89.2205 31.3562C89.5691 31.7393 89.7526 32.2425 89.7317 32.758C89.7532 33.2196 89.6378 33.6772 89.3998 34.0743Z" fill="#B11B1B"/>
<path d="M108.579 45.0759H97.6523V26.832H108.579V30.7875H102.625V33.657H108.135V37.6125H102.625V41.0546H108.579V45.0759Z" fill="#B11B1B"/>
<path d="M123.667 28.3419C122.505 27.3349 120.753 26.8281 118.423 26.8281H112.043V45.0786H117.015V39.0236H118.409C119.539 39.0544 120.665 38.8759 121.729 38.4971C122.516 38.2151 123.226 37.7547 123.802 37.1525C124.379 36.5503 124.805 35.8231 125.048 35.0287C125.286 34.2522 125.405 33.4446 125.4 32.633C125.45 31.8351 125.32 31.0361 125.021 30.294C124.721 29.5518 124.259 28.885 123.667 28.3419ZM120.095 34.0743C119.879 34.3953 119.568 34.6433 119.206 34.7852C118.825 34.9316 118.42 35.0053 118.011 35.0023H117.028V30.8099H118.31C118.6 30.7863 118.892 30.8226 119.167 30.9166C119.443 31.0106 119.696 31.1603 119.91 31.3562C120.261 31.7383 120.447 32.2416 120.427 32.758C120.449 33.2196 120.334 33.6772 120.095 34.0743Z" fill="#B11B1B"/>
<path d="M139.961 28.3419C138.793 27.3349 137.047 26.8281 134.71 26.8281H128.344V45.0786H133.289V39.0236H134.684C135.813 39.0551 136.939 38.8765 138.003 38.4971C138.79 38.2151 139.5 37.7547 140.077 37.1525C140.653 36.5503 141.079 35.8231 141.322 35.0287C141.563 34.2526 141.683 33.4449 141.681 32.633C141.731 31.8363 141.603 31.0383 141.306 30.2964C141.009 29.5545 140.549 28.8871 139.961 28.3419ZM136.383 34.0743C136.168 34.3968 135.857 34.6451 135.493 34.7852C135.113 34.9322 134.707 35.0059 134.299 35.0023H133.289V30.8099H134.617C134.906 30.7864 135.197 30.8228 135.472 30.9168C135.746 31.0109 135.998 31.1605 136.21 31.3562C136.561 31.7383 136.747 32.2416 136.728 32.758C136.746 33.2209 136.626 33.6786 136.383 34.0743Z" fill="#B11B1B"/>
<path d="M155.553 45.0759H144.633V26.832H155.553V30.7875H149.598V33.657H155.115V37.6125H149.598V41.0546H155.553V45.0759Z" fill="#B11B1B"/>
<path d="M169.448 37.1185C170.065 36.7887 170.627 36.367 171.115 35.868C171.574 35.3992 171.939 34.8473 172.19 34.2423C172.447 33.5975 172.574 32.9086 172.562 32.2152C172.602 31.1603 172.312 30.1189 171.732 29.2338C171.108 28.3898 170.233 27.7613 169.229 27.4371C167.889 26.993 166.48 26.7858 165.067 26.825H159.039V45.0755H164.005V38.4348H165.266L169.169 45.0755H174.806L169.448 37.1185ZM166.793 34.2292C166.231 34.5782 165.577 34.7524 164.914 34.7294H163.978V30.5567H164.967C165.654 30.4995 166.34 30.6759 166.912 31.0569C167.115 31.2264 167.275 31.4398 167.381 31.6806C167.487 31.9214 167.536 32.1832 167.523 32.4456C167.563 32.7774 167.52 33.1138 167.397 33.425C167.274 33.7361 167.076 34.0124 166.819 34.2292H166.793Z" fill="#B11B1B"/>
<path d="M51.6354 0.790181C51.4966 0.480041 51.2424 0.235032 50.9257 0.106273C50.6091 -0.0224868 50.2545 -0.0250515 49.936 0.0991223L0.811066 20.357C0.574395 20.4578 0.372439 20.6248 0.229812 20.8375C0.0871846 21.0502 0.0100531 21.2994 0.0078125 21.5548C0.0126025 21.8079 0.0909262 22.0543 0.233398 22.2645C0.375869 22.4746 0.576437 22.6395 0.811066 22.7395L10.6161 26.7542V35.5536C10.6161 36.6009 11.0358 37.6054 11.7827 38.3459C12.5297 39.0865 13.5428 39.5025 14.5992 39.5025C15.6556 39.5025 16.6687 39.0865 17.4157 38.3459C18.1627 37.6054 18.5823 36.6009 18.5823 35.5536C18.6066 35.2078 18.7622 34.884 19.0179 34.6475C19.2735 34.411 19.6102 34.2795 19.9598 34.2795C20.3095 34.2795 20.6461 34.411 20.9018 34.6475C21.1574 34.884 21.3131 35.2078 21.3373 35.5536V47.0515C21.3373 48.0988 21.757 49.1032 22.5039 49.8438C23.2509 50.5844 24.264 51.0004 25.3204 51.0004C26.3768 51.0004 27.3899 50.5844 28.1369 49.8438C28.8839 49.1032 29.3035 48.0988 29.3035 47.0515V39.9764C29.3035 39.6151 29.4483 39.2685 29.706 39.0131C29.9637 38.7576 30.3132 38.614 30.6777 38.614C31.0421 38.614 31.3917 38.7576 31.6494 39.0131C31.9071 39.2685 32.0519 39.6151 32.0519 39.9764V40.8649C32.0519 41.9122 32.4715 42.9166 33.2185 43.6572C33.9655 44.3978 34.9786 44.8138 36.035 44.8138C37.0914 44.8138 38.1045 44.3978 38.8514 43.6572C39.5984 42.9166 40.0181 41.9122 40.0181 40.8649V38.7654L50.0488 42.8657C50.2048 42.9292 50.3715 42.9627 50.5401 42.9644C50.7977 42.9622 51.0491 42.8857 51.2636 42.7443C51.4781 42.6029 51.6466 42.4027 51.7483 42.168C57.2412 28.9107 57.2173 14.0367 51.6819 0.796759L51.6354 0.790181ZM37.3693 40.8649C37.3693 41.2262 37.2245 41.5728 36.9668 41.8282C36.7091 42.0837 36.3596 42.2273 35.9951 42.2273C35.6307 42.2273 35.2812 42.0837 35.0234 41.8282C34.7657 41.5728 34.621 41.2262 34.621 40.8649V39.9764C34.621 38.9291 34.2013 37.9247 33.4543 37.1841C32.7074 36.4436 31.6942 36.0275 30.6379 36.0275C29.5815 36.0275 28.5684 36.4436 27.8214 37.1841C27.0744 37.9247 26.6548 38.9291 26.6548 39.9764V47.0515C26.6548 47.4128 26.51 47.7594 26.2523 48.0149C25.9946 48.2703 25.645 48.4139 25.2806 48.4139C24.9161 48.4139 24.5666 48.2703 24.3089 48.0149C24.0512 47.7594 23.9064 47.4128 23.9064 47.0515V35.5536C23.9064 34.5063 23.4868 33.5019 22.7398 32.7613C21.9928 32.0208 20.9797 31.6047 19.9233 31.6047C18.8669 31.6047 17.8538 32.0208 17.1068 32.7613C16.3599 33.5019 15.9402 34.5063 15.9402 35.5536C15.9533 35.7409 15.9275 35.9289 15.8642 36.1059C15.8009 36.2829 15.7016 36.4451 15.5724 36.5824C15.4432 36.7196 15.2869 36.8291 15.1132 36.904C14.9395 36.9788 14.7521 37.0174 14.5627 37.0174C14.3733 37.0174 14.186 36.9788 14.0123 36.904C13.8386 36.8291 13.6823 36.7196 13.5531 36.5824C13.4239 36.4451 13.3246 36.2829 13.2613 36.1059C13.198 35.9289 13.1721 35.7409 13.1852 35.5536V27.8138L17.1683 29.4526C17.3316 29.5627 17.5177 29.6354 17.7129 29.6652C17.9081 29.695 18.1075 29.6813 18.2967 29.6251C18.4859 29.5688 18.66 29.4714 18.8064 29.34C18.9528 29.2085 19.0678 29.0464 19.1429 28.8653C19.2181 28.6842 19.2516 28.4888 19.2409 28.2933C19.2303 28.0978 19.1758 27.9071 19.0814 27.7351C18.9869 27.5631 18.855 27.4141 18.6952 27.2991C18.5354 27.1841 18.3517 27.1058 18.1575 27.0701L4.65477 21.5482L27.5642 12.0972C27.5295 12.2928 27.5118 12.4909 27.5111 12.6895C27.508 13.2422 27.6493 13.7863 27.9214 14.2687C28.1935 14.7511 28.587 15.1554 29.0636 15.4421C29.5402 15.7288 30.0836 15.8882 30.6408 15.9048C31.198 15.9213 31.7501 15.7945 32.2431 15.5365C32.7362 15.2786 33.1534 14.8984 33.4541 14.433C33.7548 13.9676 33.9287 13.4328 33.959 12.881C33.9892 12.3291 33.8746 11.7789 33.6265 11.2839C33.3784 10.789 33.0051 10.3663 32.5431 10.0569L43.2112 5.65391C46.5502 14.2993 47.0862 23.7619 44.7447 32.7236C43.9439 32.172 42.9914 31.8779 42.0163 31.8812C41.0333 31.8809 40.0737 32.1782 39.2658 32.7334C38.4579 33.2885 37.8402 34.075 37.4954 34.9876L36.0018 34.3755C35.8387 34.2661 35.653 34.194 35.4583 34.1644C35.2636 34.1349 35.0647 34.1487 34.876 34.2048C34.6873 34.2609 34.5136 34.3579 34.3675 34.4888C34.2213 34.6198 34.1063 34.7813 34.0309 34.9617C33.9555 35.1421 33.9216 35.3369 33.9315 35.5319C33.9414 35.727 33.995 35.9174 34.0883 36.0894C34.1817 36.2613 34.3125 36.4105 34.4712 36.5262C34.6299 36.6419 34.8126 36.7211 35.006 36.758L37.3228 37.7058L37.3693 40.8649ZM49.7767 39.9764L45.3687 38.1731C49.4993 27.4198 49.4828 15.5337 45.3222 4.79173L49.7236 2.98182C54.3434 14.8847 54.3623 28.0605 49.7767 39.9764Z" fill="#B11B1B"/>
<path d="M30.6416 32.1832L26.6253 30.5444C26.462 30.4343 26.276 30.3616 26.0808 30.3318C25.8856 30.3019 25.6861 30.3157 25.497 30.3719C25.3078 30.4282 25.1337 30.5256 24.9873 30.657C24.8409 30.7885 24.7259 30.9506 24.6507 31.1317C24.5756 31.3128 24.5421 31.5082 24.5527 31.7037C24.5634 31.8992 24.6179 32.0899 24.7123 32.2619C24.8067 32.4339 24.9386 32.5829 25.0985 32.6979C25.2583 32.8129 25.442 32.8912 25.6362 32.9269L29.6193 34.5723C29.7773 34.6366 29.9464 34.6701 30.1172 34.671C30.4065 34.6493 30.6806 34.5343 30.8977 34.3435C31.1149 34.1528 31.263 33.8967 31.3194 33.6146C31.3759 33.3325 31.3376 33.0398 31.2104 32.7813C31.0832 32.5228 30.8741 32.3127 30.6151 32.1832H30.6416Z" fill="#B11B1B"/>
<path d="M39.2653 26.7208C41.938 26.7208 44.1047 24.5727 44.1047 21.9229C44.1047 19.2731 41.938 17.125 39.2653 17.125C36.5925 17.125 34.4258 19.2731 34.4258 21.9229C34.4258 24.5727 36.5925 26.7208 39.2653 26.7208Z" fill="#B11B1B"/>
<path d="M16.4685 24.5105C18.2503 24.5105 19.6948 23.0784 19.6948 21.3119C19.6948 19.5453 18.2503 18.1133 16.4685 18.1133C14.6867 18.1133 13.2422 19.5453 13.2422 21.3119C13.2422 23.0784 14.6867 24.5105 16.4685 24.5105Z" fill="#B11B1B"/>
<path d="M41.7421 13.4525C42.633 13.4525 43.3552 12.7365 43.3552 11.8532C43.3552 10.9699 42.633 10.2539 41.7421 10.2539C40.8511 10.2539 40.1289 10.9699 40.1289 11.8532C40.1289 12.7365 40.8511 13.4525 41.7421 13.4525Z" fill="#B11B1B"/>
<path d="M28.738 23.6289C28.0999 23.6289 27.4762 23.8165 26.9456 24.168C26.415 24.5194 26.0015 25.019 25.7573 25.6035C25.5131 26.1879 25.4492 26.8311 25.5737 27.4515C25.6982 28.072 26.0055 28.6419 26.4567 29.0893C26.9079 29.5366 27.4828 29.8412 28.1086 29.9647C28.7345 30.0881 29.3832 30.0247 29.9727 29.7826C30.5622 29.5405 31.0661 29.1306 31.4206 28.6046C31.7751 28.0786 31.9643 27.4601 31.9643 26.8275C31.9626 25.9797 31.6221 25.1672 31.0175 24.5677C30.4128 23.9682 29.5932 23.6306 28.738 23.6289Z" fill="#B11B1B"/>
<path d="M26.1299 20.0814C26.4493 20.0827 26.7618 19.99 27.028 19.8151C27.2941 19.6401 27.5019 19.3908 27.625 19.0987C27.7482 18.8066 27.781 18.4848 27.7196 18.1741C27.6581 17.8635 27.5049 17.5779 27.2796 17.3536C27.0543 17.1292 26.7668 16.9763 26.4537 16.914C26.1406 16.8518 25.816 16.8831 25.5208 17.0039C25.2257 17.1248 24.9733 17.3298 24.7958 17.5929C24.6182 17.856 24.5234 18.1655 24.5234 18.4821C24.5234 18.9051 24.6925 19.3109 24.9936 19.6107C25.2947 19.9104 25.7033 20.0797 26.1299 20.0814Z" fill="#B11B1B"/>
</g>
<defs>
<clipPath id="clip0_175_171">
<rect width="187" height="51" fill="white"/>
</clipPath>
</defs>
</svg>
