<svg width="177" height="117" viewBox="0 0 177 117" fill="none" xmlns="http://www.w3.org/2000/svg">
<g clip-path="url(#clip0_175_139)">
<path d="M0 102.657V88.0703H3.92003V99.4754H9.53733V102.657H0Z" fill="white"/>
<path d="M20.7576 102.657H12.0938V88.0703H20.7576V91.2305H16.0351V93.5243H20.4096V96.6915H16.0351V99.4398H20.7576V102.657Z" fill="white"/>
<path d="M29.8676 102.657L26.8849 92.1466H26.7926C26.821 92.4212 26.8494 92.7904 26.8778 93.2544C26.9133 93.7231 26.9418 94.2273 26.9631 94.7599C26.9844 95.2925 27.0057 95.8181 27.0057 96.3223V102.657H23.5117V88.0703H28.7739L31.8205 98.4243H31.8986L34.8813 88.0703H40.1364V102.657H36.5146V96.2654C36.5146 95.8109 36.5146 95.3138 36.5146 94.7812C36.5146 94.2486 36.5501 93.7586 36.5714 93.2899C36.5927 92.8212 36.6211 92.4519 36.6424 92.175H36.5856L33.6385 102.664L29.8676 102.657Z" fill="white"/>
<path d="M49.8324 102.657L46.8498 92.1466H46.7575C46.7859 92.4212 46.8143 92.7904 46.8427 93.2544C46.8427 93.7231 46.8995 94.2273 46.9279 94.7599C46.9563 95.2925 46.9634 95.8181 46.9634 96.3223V102.657H43.4766V88.0703H48.7246L51.764 98.4243H51.8492L54.8319 88.0703H60.087V102.657H56.4723V96.2654C56.4723 95.8109 56.4723 95.3138 56.4723 94.7812C56.4723 94.2486 56.5078 93.7586 56.5291 93.2899C56.5504 92.8212 56.5718 92.4519 56.5931 92.175H56.5007L53.5607 102.664L49.8324 102.657Z" fill="white"/>
<path d="M76.8829 95.3457C76.8943 96.3824 76.758 97.4154 76.4781 98.4136C76.2339 99.2887 75.8026 100.1 75.214 100.793C74.6156 101.478 73.8569 102.005 73.0055 102.326C71.9761 102.705 70.8847 102.885 69.7885 102.859C68.7039 102.884 67.6244 102.703 66.607 102.326C65.7585 102.003 65.0007 101.479 64.3984 100.8C63.8032 100.109 63.3647 99.2972 63.113 98.4207C62.8207 97.415 62.6795 96.3716 62.6941 95.3244C62.6621 93.9675 62.9187 92.6192 63.4468 91.3689C63.9263 90.2745 64.7423 89.3615 65.7761 88.7626C67.0371 88.1527 68.4197 87.8359 69.8204 87.8359C71.2212 87.8359 72.6037 88.1527 73.8647 88.7626C74.8887 89.3645 75.6907 90.2812 76.1514 91.376C76.6641 92.6353 76.9131 93.9864 76.8829 95.3457ZM66.8413 95.3457C66.8258 96.1116 66.9263 96.8754 67.1396 97.6111C67.3002 98.1824 67.6324 98.6905 68.0912 99.0669C68.5817 99.4267 69.1809 99.6072 69.7885 99.5782C70.4054 99.6114 71.0149 99.4308 71.5141 99.0669C71.9679 98.69 72.293 98.1812 72.4444 97.6111C72.6489 96.8738 72.7447 96.1106 72.7285 95.3457C72.7817 94.2646 72.5542 93.1881 72.068 92.2211C71.8368 91.8361 71.5014 91.5244 71.1005 91.3221C70.6997 91.1198 70.2497 91.035 69.8027 91.0777C69.1871 91.0464 68.5797 91.2296 68.0841 91.5961C67.6161 91.9745 67.2804 92.4917 67.1254 93.0732C66.917 93.8121 66.8212 94.5782 66.8413 95.3457Z" fill="white"/>
<path d="M93.3994 102.657H88.2295L82.9034 92.3809H82.8182C82.8182 92.6934 82.875 93.0911 82.9034 93.503C82.9318 93.9149 82.9531 94.3907 82.9744 94.8451C82.9957 95.2996 82.9744 95.7115 82.9744 96.0808V102.657H79.4805V88.0703H84.6291L89.941 98.2042H89.9978C89.9978 97.8846 89.9978 97.494 89.941 97.0892C89.8842 96.6844 89.941 96.2442 89.8842 95.811C89.8274 95.3778 89.8842 94.9943 89.8842 94.6605V88.0703H93.3994V102.657Z" fill="white"/>
<path d="M107.32 88.0703C109.166 88.0703 110.558 88.468 111.474 89.2776C111.945 89.7104 112.314 90.2429 112.554 90.8362C112.793 91.4296 112.898 92.0689 112.859 92.7076C112.859 93.3572 112.764 94.0034 112.575 94.625C112.382 95.2599 112.043 95.841 111.586 96.3218C111.128 96.8027 110.565 97.17 109.94 97.3946C109.101 97.6977 108.212 97.8398 107.32 97.8136H106.184V102.657H102.242V88.0703H107.32ZM107.227 91.2518H106.184V94.6037H106.965C107.288 94.6073 107.609 94.5469 107.909 94.4262C108.199 94.3153 108.448 94.1167 108.619 93.858C108.81 93.5419 108.902 93.1757 108.882 92.807C108.899 92.3944 108.754 91.9915 108.477 91.685C108.309 91.5314 108.112 91.4137 107.897 91.3392C107.682 91.2648 107.454 91.235 107.227 91.2518Z" fill="white"/>
<path d="M123.844 102.657H115.18V88.0703H123.844V91.2305H119.121V93.5243H123.496V96.6915H119.121V99.4398H123.844V102.657Z" fill="white"/>
<path d="M131.647 88.0703C133.493 88.0703 134.878 88.468 135.801 89.2776C136.273 89.7104 136.641 90.2429 136.881 90.8362C137.12 91.4296 137.225 92.0689 137.186 92.7076C137.186 93.3572 137.091 94.0034 136.902 94.625C136.709 95.2599 136.37 95.841 135.913 96.3218C135.455 96.8027 134.892 97.17 134.267 97.3946C133.428 97.6977 132.539 97.8398 131.647 97.8136H130.539V102.657H126.598V88.0703H131.647ZM131.555 91.2518H130.539V94.6037H131.32C131.644 94.6073 131.965 94.5469 132.265 94.4262C132.555 94.3153 132.803 94.1167 132.975 93.858C133.166 93.5419 133.257 93.1757 133.238 92.807C133.255 92.3944 133.109 91.9915 132.833 91.685C132.662 91.5277 132.46 91.408 132.239 91.3334C132.019 91.2588 131.786 91.231 131.555 91.2518Z" fill="white"/>
<path d="M144.53 88.0703C146.376 88.0703 147.768 88.468 148.684 89.2776C149.162 89.707 149.537 90.238 149.783 90.8316C150.029 91.4251 150.139 92.0661 150.104 92.7076C150.105 93.3573 150.009 94.0034 149.82 94.625C149.627 95.2599 149.288 95.841 148.831 96.3218C148.374 96.8027 147.81 97.17 147.186 97.3946C146.336 97.707 145.434 97.854 144.53 97.8278H143.422V102.671H139.48V88.0703H144.53ZM144.437 91.2518H143.422V94.6037H144.203C144.526 94.6073 144.847 94.5469 145.147 94.4262C145.438 94.3153 145.686 94.1167 145.858 93.8581C146.048 93.5419 146.14 93.1758 146.12 92.807C146.138 92.3944 145.992 91.9916 145.716 91.685C145.548 91.5314 145.35 91.4137 145.135 91.3393C144.92 91.2648 144.693 91.235 144.466 91.2518H144.437Z" fill="white"/>
<path d="M161.082 102.657H152.418V88.0703H161.082V91.2305H156.359V93.5243H160.734V96.6915H156.359V99.4398H161.082V102.657Z" fill="white"/>
<path d="M168.62 88.0748C169.74 88.0404 170.858 88.2039 171.922 88.5577C172.716 88.8107 173.409 89.3078 173.903 89.978C174.366 90.6858 174.599 91.519 174.571 92.3641C174.576 92.9163 174.472 93.4641 174.266 93.9761C174.068 94.4625 173.779 94.9062 173.413 95.2828C173.024 95.6784 172.579 96.0156 172.092 96.2841L176.353 102.64H171.879L168.79 97.3281H167.789V102.64H163.848V88.0748H168.62ZM168.563 91.0574H167.782V94.388H168.492C169.016 94.4094 169.533 94.2707 169.976 93.9903C170.184 93.8207 170.346 93.602 170.447 93.354C170.549 93.106 170.587 92.8365 170.559 92.57C170.575 92.3589 170.542 92.1467 170.462 91.9507C170.382 91.7546 170.257 91.58 170.097 91.4409C169.644 91.1435 169.103 91.0083 168.563 91.0574Z" fill="white"/>
<path d="M60.1836 116.154V115.338H60.5174C60.7091 115.338 60.8085 115.224 60.8085 115.061V110.388H60.2333V109.536H63.1094C63.7355 109.499 64.3544 109.685 64.8564 110.061C65.0746 110.26 65.2444 110.506 65.3527 110.781C65.4611 111.055 65.5051 111.351 65.4813 111.645C65.4981 111.955 65.4427 112.264 65.3194 112.549C65.1962 112.833 65.0085 113.086 64.7712 113.285C64.2305 113.698 63.5616 113.907 62.8822 113.875H62.03V115.295H62.9887V116.147L60.1836 116.154ZM62.0371 112.845H62.7472C63.7201 112.845 64.2101 112.447 64.2101 111.652C64.2355 111.472 64.2142 111.289 64.1483 111.12C64.0824 110.951 63.9741 110.801 63.8338 110.686C63.4617 110.503 63.0474 110.422 62.6336 110.452H62.0229L62.0371 112.845Z" fill="white"/>
<path d="M68.7421 114.991V110.368H68.1669V109.516H70.5956V110.325L70.2689 110.361C70.2275 110.358 70.186 110.365 70.1476 110.38C70.1091 110.396 70.0746 110.42 70.0466 110.451C70.0187 110.481 69.998 110.518 69.9861 110.558C69.9741 110.597 69.9713 110.639 69.9778 110.68V115.31H70.553V116.163H68.1172V115.346H68.4439C68.5242 115.34 68.601 115.311 68.664 115.261C68.6977 115.225 68.7224 115.182 68.7359 115.135C68.7495 115.088 68.7517 115.039 68.7421 114.991Z" fill="white"/>
<path d="M77.6824 110.3L74.6145 115.207H76.5675C76.7308 115.207 76.816 115.1 76.816 114.88V114.17L77.8386 114.241V116.151H73.2227V115.313L76.255 110.427H74.5932C74.4086 110.427 74.3234 110.527 74.3234 110.733V111.138L73.2937 111.067V109.469H77.6824V110.3Z" fill="white"/>
<path d="M84.9473 110.308L81.8795 115.215H83.8253C83.9957 115.215 84.0738 115.102 84.0809 114.889V114.179L85.1036 114.25V116.16H80.4805V115.329L83.5199 110.443H81.8511C81.6735 110.443 81.5812 110.543 81.5812 110.748V111.153L80.5586 111.082V109.484H84.9473V110.308Z" fill="white"/>
<path d="M88.1924 115.053L89.8187 110.373L89.1795 110.317V109.5H91.4804L93.5256 115.302H94.0938V116.154H91.5017V115.337H91.8852C91.9689 115.333 92.0498 115.306 92.1196 115.259C92.1196 115.217 92.1622 115.146 92.1196 115.039L91.9065 114.414H89.5559L89.2576 115.295H89.8613V116.154H87.5391V115.345H87.8728C87.9511 115.339 88.0253 115.307 88.0833 115.255C88.1413 115.202 88.1798 115.131 88.1924 115.053ZM90.7561 110.629L89.8257 113.47H91.6934L90.7916 110.629H90.7561Z" fill="white"/>
<path d="M96.4883 116.183V115.374H96.8221C97.0138 115.374 97.1132 115.26 97.1132 115.09V110.424L96.538 110.389V109.536H99.2792C99.9054 109.501 100.528 109.652 101.069 109.97C101.282 110.136 101.451 110.353 101.559 110.601C101.666 110.849 101.71 111.12 101.687 111.39C101.702 111.794 101.577 112.19 101.332 112.512C101.108 112.798 100.815 113.02 100.479 113.158C100.612 113.215 100.732 113.298 100.831 113.403C100.93 113.508 101.006 113.633 101.055 113.769L101.765 115.345H102.34V116.198H99.8615V115.374H100.153C100.309 115.374 100.38 115.296 100.38 115.196C100.378 115.147 100.365 115.099 100.344 115.054L99.8686 114.046C99.8184 113.91 99.7355 113.788 99.6272 113.691C99.5124 113.613 99.375 113.575 99.2366 113.584H98.3702V115.331H99.0235V116.183H96.4883ZM98.3418 112.633H99.2153C100.039 112.633 100.451 112.263 100.451 111.525C100.451 111.106 100.344 110.815 100.124 110.701C99.7935 110.557 99.4333 110.494 99.0732 110.516H98.3631L98.3418 112.633Z" fill="white"/>
<path d="M105.408 115.019V110.403L104.833 110.368V109.516H107.261V110.332H106.928C106.887 110.332 106.847 110.34 106.809 110.357C106.772 110.373 106.739 110.397 106.711 110.427C106.684 110.457 106.663 110.493 106.65 110.532C106.637 110.57 106.633 110.611 106.637 110.652V115.282H107.205V116.141H104.762V115.332H105.095C105.176 115.325 105.252 115.295 105.316 115.247C105.375 115.186 105.408 115.104 105.408 115.019Z" fill="white"/>
<path d="M110.235 115.077L111.855 110.397L111.222 110.333V109.523H113.523L115.569 115.318H116.144V116.17H113.552V115.354H113.935C114.019 115.352 114.099 115.322 114.163 115.269C114.205 115.269 114.212 115.155 114.163 115.048L113.949 114.431H111.599L111.301 115.318H111.904V116.17H109.582V115.354H109.916C109.992 115.348 110.064 115.318 110.121 115.268C110.179 115.218 110.219 115.151 110.235 115.077ZM112.799 110.645L111.862 113.486H113.729L112.835 110.645H112.799Z" fill="white"/>
<path d="M53.5169 114.463C54.415 114.463 55.1431 113.735 55.1431 112.837C55.1431 111.939 54.415 111.211 53.5169 111.211C52.6187 111.211 51.8906 111.939 51.8906 112.837C51.8906 113.735 52.6187 114.463 53.5169 114.463Z" fill="white"/>
<path d="M122.829 114.463C123.728 114.463 124.456 113.735 124.456 112.837C124.456 111.939 123.728 111.211 122.829 111.211C121.931 111.211 121.203 111.939 121.203 112.837C121.203 113.735 121.931 114.463 122.829 114.463Z" fill="white"/>
<path d="M118.573 1.15153C118.479 0.925075 118.342 0.719294 118.169 0.545965C117.996 0.372636 117.791 0.235189 117.564 0.141498C117.338 0.0478079 117.095 -0.000278819 116.85 1.21608e-06C116.605 0.000281251 116.363 0.0489161 116.137 0.143124L45.7112 29.4369C45.372 29.5793 45.0824 29.8187 44.8787 30.1251C44.6751 30.4314 44.5664 30.7911 44.5664 31.159C44.5664 31.5269 44.6751 31.8866 44.8787 32.1929C45.0824 32.4993 45.372 32.7387 45.7112 32.8811L59.7651 38.683V51.409C59.7651 52.9204 60.3655 54.37 61.4343 55.4388C62.503 56.5075 63.9526 57.1079 65.4641 57.1079C66.9755 57.1079 68.4251 56.5075 69.4938 55.4388C70.5626 54.37 71.163 52.9204 71.163 51.409C71.163 50.8854 71.371 50.3832 71.7413 50.013C72.1115 49.6427 72.6136 49.4348 73.1372 49.4348C73.6608 49.4348 74.163 49.6427 74.5332 50.013C74.9035 50.3832 75.1115 50.8854 75.1115 51.409V68.0052C75.1115 69.5167 75.7119 70.9662 76.7806 72.035C77.8494 73.1038 79.299 73.7042 80.8104 73.7042C82.3219 73.7042 83.7714 73.1038 84.8402 72.035C85.909 70.9662 86.5094 69.5167 86.5094 68.0052V57.779C86.5395 57.2768 86.7603 56.8051 87.1266 56.4602C87.4928 56.1152 87.977 55.9232 88.4801 55.9232C88.9832 55.9232 89.4673 56.1152 89.8335 56.4602C90.1998 56.8051 90.4206 57.2768 90.4507 57.779V59.0573C90.4507 60.5641 91.0493 62.0091 92.1147 63.0745C93.1801 64.14 94.6252 64.7385 96.1319 64.7385C97.6387 64.7385 99.0837 64.14 100.149 63.0745C101.215 62.0091 101.813 60.5641 101.813 59.0573V56.0179L116.187 61.9476C116.412 62.039 116.653 62.0872 116.897 62.0897C117.267 62.0884 117.628 61.9778 117.935 61.7718C118.242 61.5659 118.481 61.2737 118.622 60.9321C126.504 41.7709 126.471 20.267 118.53 1.13022L118.573 1.15153ZM98.1275 59.0786C98.1436 59.3473 98.1046 59.6166 98.0129 59.8697C97.9212 60.1228 97.7786 60.3545 97.594 60.5505C97.4094 60.7465 97.1867 60.9026 96.9396 61.0094C96.6924 61.1161 96.426 61.1712 96.1568 61.1712C95.8876 61.1712 95.6212 61.1161 95.374 61.0094C95.1269 60.9026 94.9042 60.7465 94.7196 60.5505C94.535 60.3545 94.3925 60.1228 94.3007 59.8697C94.209 59.6166 94.17 59.3473 94.1861 59.0786V57.8003C94.1861 56.2889 93.5857 54.8393 92.5169 53.7706C91.4482 52.7018 89.9986 52.1014 88.4872 52.1014C86.9757 52.1014 85.5261 52.7018 84.4574 53.7706C83.3886 54.8393 82.7882 56.2889 82.7882 57.8003V68.0052C82.8043 68.274 82.7653 68.5432 82.6736 68.7963C82.5819 69.0494 82.4393 69.2811 82.2547 69.4771C82.0702 69.673 81.8475 69.8292 81.6003 69.936C81.3531 70.0427 81.0868 70.0978 80.8175 70.0978C80.5483 70.0978 80.2819 70.0427 80.0348 69.936C79.7876 69.8292 79.5649 69.673 79.3803 69.4771C79.1957 69.2811 79.0532 69.0494 78.9614 68.7963C78.8697 68.5432 78.8307 68.274 78.8469 68.0052V51.3877C78.8469 49.8753 78.2461 48.4248 77.1766 47.3554C76.1072 46.2859 74.6568 45.6852 73.1444 45.6852C71.6319 45.6852 70.1815 46.2859 69.1121 47.3554C68.0426 48.4248 67.4418 49.8753 67.4418 51.3877C67.458 51.6564 67.419 51.9256 67.3272 52.1787C67.2355 52.4318 67.093 52.6635 66.9084 52.8595C66.7238 53.0555 66.5011 53.2117 66.2539 53.3184C66.0068 53.4252 65.7404 53.4802 65.4711 53.4802C65.2019 53.4802 64.9356 53.4252 64.6884 53.3184C64.4412 53.2117 64.2185 53.0555 64.0339 52.8595C63.8494 52.6635 63.7068 52.4318 63.6151 52.1787C63.5233 51.9256 63.4843 51.6564 63.5005 51.3877V40.217L69.2527 42.5818C69.4789 42.6751 69.7212 42.7229 69.9658 42.7225C70.2104 42.7221 70.4526 42.6735 70.6784 42.5795C70.9043 42.4856 71.1094 42.348 71.2821 42.1748C71.4548 42.0015 71.5917 41.796 71.685 41.5698C71.7782 41.3437 71.826 41.1014 71.8256 40.8567C71.8253 40.6121 71.7767 40.3699 71.6827 40.1441C71.5888 39.9182 71.4512 39.7131 71.278 39.5404C71.1047 39.3677 70.8992 39.2308 70.673 39.1376L51.3143 31.1554L84.1659 17.4921C84.1143 17.7757 84.0882 18.0632 84.0878 18.3514C84.0836 19.1517 84.2873 19.9394 84.6788 20.6374C85.0704 21.3354 85.6364 21.9198 86.3216 22.3334C87.0068 22.747 87.7876 22.9757 88.5876 22.997C89.3876 23.0183 90.1795 22.8316 90.8858 22.4551C91.592 22.0785 92.1883 21.5251 92.6165 20.849C93.0447 20.1729 93.2901 19.3971 93.3286 18.5977C93.367 17.7983 93.1973 17.0027 92.836 16.2885C92.4747 15.5744 91.9342 14.9663 91.2674 14.5237L106.564 8.13233C111.342 20.6333 112.109 34.312 108.758 47.2688C107.609 46.4719 106.244 46.0457 104.846 46.0473C103.437 46.0478 102.062 46.4777 100.903 47.2795C99.7449 48.0813 98.8584 49.2171 98.3618 50.5355L96.2314 49.6549C95.7832 49.5071 95.2957 49.5343 94.8668 49.7313C94.4379 49.9282 94.0995 50.2803 93.9196 50.7165C93.7397 51.1528 93.7316 51.6411 93.897 52.0831C94.0624 52.5251 94.3889 52.8881 94.8111 53.0991L98.1346 54.4697L98.1275 59.0786ZM115.881 57.8003L109.596 55.2225C115.52 39.6657 115.492 22.4697 109.518 6.93217L115.832 4.31171C122.461 21.5201 122.489 40.5727 115.91 57.8003H115.881Z" fill="white"/>
<path d="M88.4854 46.4892L82.7331 44.1172C82.507 44.024 82.2646 43.9762 82.02 43.9766C81.7754 43.9769 81.5333 44.0255 81.3074 44.1195C81.0815 44.2135 80.8764 44.351 80.7037 44.5242C80.531 44.6975 80.3941 44.9031 80.3008 45.1292C80.2076 45.3554 80.1598 45.5977 80.1602 45.8423C80.1605 46.0869 80.2091 46.3291 80.3031 46.5549C80.3971 46.7808 80.5346 46.9859 80.7078 47.1586C80.8811 47.3313 81.0867 47.4682 81.3128 47.5615L87.065 49.9405C87.2908 50.0319 87.5317 50.08 87.7752 50.0825C88.207 50.0816 88.625 49.931 88.9583 49.6565C89.2916 49.382 89.5195 49.0005 89.6032 48.5769C89.6869 48.1533 89.6213 47.7139 89.4175 47.3332C89.2137 46.9526 88.8843 46.6543 88.4854 46.4892Z" fill="white"/>
<path d="M102.446 38.454C106.171 37.5747 108.479 33.8417 107.599 30.1162C106.72 26.3906 102.987 24.0832 99.2614 24.9625C95.5358 25.8419 93.2285 29.5749 94.1078 33.3004C94.9871 37.026 98.7201 39.3334 102.446 38.454Z" fill="white"/>
<path d="M68.1817 35.4259C70.7349 35.4259 72.8048 33.356 72.8048 30.8028C72.8048 28.2495 70.7349 26.1797 68.1817 26.1797C65.6284 26.1797 63.5586 28.2495 63.5586 30.8028C63.5586 33.356 65.6284 35.4259 68.1817 35.4259Z" fill="white"/>
<path d="M104.398 19.4441C105.673 19.4441 106.706 18.4108 106.706 17.1361C106.706 15.8614 105.673 14.8281 104.398 14.8281C103.123 14.8281 102.09 15.8614 102.09 17.1361C102.09 18.4108 103.123 19.4441 104.398 19.4441Z" fill="white"/>
<path d="M85.7598 43.418C88.3131 43.418 90.3829 41.3482 90.3829 38.795C90.3829 36.2417 88.3131 34.1719 85.7598 34.1719C83.2065 34.1719 81.1367 36.2417 81.1367 38.795C81.1367 41.3482 83.2065 43.418 85.7598 43.418Z" fill="white"/>
<path d="M82.0228 29.03C83.2975 29.03 84.3308 27.9967 84.3308 26.7221C84.3308 25.4474 83.2975 24.4141 82.0228 24.4141C80.7482 24.4141 79.7148 25.4474 79.7148 26.7221C79.7148 27.9967 80.7482 29.03 82.0228 29.03Z" fill="white"/>
</g>
<defs>
<clipPath id="clip0_175_139">
<rect width="176.345" height="116.202" fill="white"/>
</clipPath>
</defs>
</svg>
