<svg width="17" height="16" viewBox="0 0 17 16" fill="none" xmlns="http://www.w3.org/2000/svg">
<path d="M8.5 0C5.32314 0 2.47553 1.232 0.5 3.2L8.5 16L16.5 3.2C14.5334 1.24 11.6769 0 8.5 0ZM4.05061 4C4.05061 3.12 4.8515 2.4 5.83037 2.4C6.80923 2.4 7.61012 3.12 7.61012 4C7.61012 4.88 6.80923 5.6 5.83037 5.6C4.8515 5.6 4.05061 4.88 4.05061 4ZM8.5 10.4C7.52113 10.4 6.72024 9.68 6.72024 8.8C6.72024 7.92 7.52113 7.2 8.5 7.2C9.47887 7.2 10.2798 7.92 10.2798 8.8C10.2798 9.68 9.47887 10.4 8.5 10.4Z" fill="white"/>
</svg>
