<svg width="33" height="32" viewBox="0 0 33 32" fill="none" xmlns="http://www.w3.org/2000/svg">
<path d="M31.556 15.328L17.156 0.928C16.58 0.352 15.78 0 14.9 0H3.7C1.94 0 0.5 1.44 0.5 3.2V14.4C0.5 15.28 0.852 16.08 1.444 16.672L15.844 31.072C16.42 31.648 17.22 32 18.1 32C18.98 32 19.78 31.648 20.356 31.056L31.556 19.856C32.148 19.28 32.5 18.48 32.5 17.6C32.5 16.72 32.132 15.904 31.556 15.328ZM6.1 8C4.772 8 3.7 6.928 3.7 5.6C3.7 4.272 4.772 3.2 6.1 3.2C7.428 3.2 8.5 4.272 8.5 5.6C8.5 6.928 7.428 8 6.1 8Z" fill="white"/>
</svg>
